<svg width="205" height="205" viewBox="0 0 205 205" fill="none" xmlns="http://www.w3.org/2000/svg">
<g filter="url(#filter0_d_873_175)">
<rect x="54" y="22" width="97" height="97" rx="10" fill="#004EFF" shape-rendering="crispEdges"/>
<path d="M99 67.03C97.9 67.03 96.9583 66.6384 96.175 65.855C95.3917 65.0717 95 64.13 95 63.03C95 61.93 95.3917 60.9884 96.175 60.205C96.9583 59.4217 97.9 59.03 99 59.03C100.1 59.03 101.042 59.4217 101.825 60.205C102.608 60.9884 103 61.93 103 63.03C103 64.13 102.608 65.0717 101.825 65.855C101.042 66.6384 100.1 67.03 99 67.03ZM91 75.03V72.23C91 71.6634 91.146 71.1427 91.438 70.668C91.73 70.1934 92.1173 69.8307 92.6 69.58C93.6333 69.0634 94.6833 68.676 95.75 68.418C96.8167 68.16 97.9 68.0307 99 68.03C100.1 68.0294 101.183 68.1587 102.25 68.418C103.317 68.6774 104.367 69.0647 105.4 69.58C105.883 69.83 106.271 70.1927 106.563 70.668C106.855 71.1434 107.001 71.664 107 72.23V75.03H91ZM93 73.03H105V72.23C105 72.0467 104.954 71.88 104.863 71.73C104.772 71.58 104.651 71.4634 104.5 71.38C103.6 70.93 102.692 70.5927 101.775 70.368C100.858 70.1434 99.9333 70.0307 99 70.03C98.0667 70.0294 97.1417 70.142 96.225 70.368C95.3083 70.594 94.4 70.9314 93.5 71.38C93.35 71.4634 93.229 71.58 93.137 71.73C93.045 71.88 92.9993 72.0467 93 72.23V73.03ZM99 65.03C99.55 65.03 100.021 64.8344 100.413 64.443C100.805 64.0517 101.001 63.5807 101 63.03C100.999 62.4794 100.804 62.0087 100.413 61.618C100.022 61.2274 99.5513 61.0314 99 61.03C98.4487 61.0287 97.978 61.2247 97.588 61.618C97.198 62.0114 97.002 62.482 97 63.03C96.998 63.578 97.194 64.049 97.588 64.443C97.982 64.837 98.4527 65.0327 99 65.03Z" fill="white"/>
</g>
<path d="M133.012 93.8035L119.836 81.7208C123.786 77.0018 125.631 71.082 124.995 65.1623C124.359 59.2426 121.29 53.7663 116.412 49.8442C111.533 45.9221 105.209 43.848 98.723 44.0426C92.2371 44.2371 86.0748 46.6858 81.4861 50.8919C76.8974 55.098 74.226 60.7466 74.0137 66.6917C73.8014 72.6368 76.0642 78.4334 80.343 82.9055C84.6219 87.3776 90.5963 90.1904 97.0545 90.7733C103.513 91.3562 109.971 89.6655 115.119 86.0442L128.306 98.1346C128.616 98.4185 128.984 98.6437 129.388 98.7973C129.793 98.951 130.227 99.03 130.665 99.03C131.103 99.03 131.536 98.951 131.941 98.7973C132.346 98.6437 132.713 98.4185 133.023 98.1346C133.333 97.8507 133.579 97.5137 133.746 97.1428C133.914 96.7719 134 96.3744 134 95.9729C134 95.5714 133.914 95.1739 133.746 94.803C133.579 94.4321 133.333 94.095 133.023 93.8112L133.012 93.8035ZM80.7149 67.4788C80.7149 64.0584 81.8214 60.7149 83.8945 57.8709C85.9676 55.027 88.9142 52.8104 92.3617 51.5014C95.8091 50.1925 99.6026 49.85 103.262 50.5173C106.922 51.1846 110.284 52.8317 112.923 55.2503C115.561 57.6688 117.358 60.7503 118.086 64.105C118.814 67.4596 118.44 70.9368 117.012 74.0969C115.584 77.2569 113.166 79.9578 110.064 81.8581C106.961 83.7584 103.313 84.7726 99.5817 84.7726C94.5795 84.7679 89.7836 82.9444 86.2465 79.7022C82.7094 76.46 80.72 72.064 80.7149 67.4788Z" fill="white"/>
<defs>
<filter id="filter0_d_873_175" x="0" y="0" width="205" height="205" filterUnits="userSpaceOnUse" color-interpolation-filters="sRGB">
<feFlood flood-opacity="0" result="BackgroundImageFix"/>
<feColorMatrix in="SourceAlpha" type="matrix" values="0 0 0 0 0 0 0 0 0 0 0 0 0 0 0 0 0 0 127 0" result="hardAlpha"/>
<feOffset dy="32"/>
<feGaussianBlur stdDeviation="27"/>
<feComposite in2="hardAlpha" operator="out"/>
<feColorMatrix type="matrix" values="0 0 0 0 0.145098 0 0 0 0 0.541176 0 0 0 0 1 0 0 0 0.22 0"/>
<feBlend mode="normal" in2="BackgroundImageFix" result="effect1_dropShadow_873_175"/>
<feBlend mode="normal" in="SourceGraphic" in2="effect1_dropShadow_873_175" result="shape"/>
</filter>
</defs>
</svg>
