<svg width="205" height="205" viewBox="0 0 205 205" fill="none" xmlns="http://www.w3.org/2000/svg">
<g filter="url(#filter0_d_873_194)">
<rect x="54" y="22" width="97" height="97" rx="10" fill="#004EFF" shape-rendering="crispEdges"/>
<path fill-rule="evenodd" clip-rule="evenodd" d="M83.4062 53.4062V76.9062H121.594V53.4062H83.4062ZM81.9375 81.3125H93.6875V85.7188H90.0156C89.4313 85.7188 88.8709 85.9509 88.4578 86.364C88.0446 86.7772 87.8125 87.3376 87.8125 87.9219C87.8125 88.5062 88.0446 89.0666 88.4578 89.4797C88.8709 89.8929 89.4313 90.125 90.0156 90.125H114.984C115.569 90.125 116.129 89.8929 116.542 89.4797C116.955 89.0666 117.188 88.5062 117.188 87.9219C117.188 87.3376 116.955 86.7772 116.542 86.364C116.129 85.9509 115.569 85.7188 114.984 85.7188H111.312V81.3125H123.062C123.842 81.3125 124.589 81.003 125.14 80.4521C125.691 79.9012 126 79.1541 126 78.375V51.9375C126 51.1584 125.691 50.4113 125.14 49.8604C124.589 49.3095 123.842 49 123.062 49H81.9375C81.1584 49 80.4113 49.3095 79.8604 49.8604C79.3095 50.4113 79 51.1584 79 51.9375V78.375C79 79.1541 79.3095 79.9012 79.8604 80.4521C80.4113 81.003 81.1584 81.3125 81.9375 81.3125ZM98.0938 85.7188V81.3125H106.906V85.7188H98.0938ZM112.781 62.9531C112.781 62.3688 112.549 61.8084 112.136 61.3953C111.723 60.9821 111.162 60.75 110.578 60.75C109.994 60.75 109.433 60.9821 109.02 61.3953C108.607 61.8084 108.375 62.3688 108.375 62.9531V70.2969C108.375 70.8812 108.607 71.4416 109.02 71.8547C109.433 72.2679 109.994 72.5 110.578 72.5C111.162 72.5 111.723 72.2679 112.136 71.8547C112.549 71.4416 112.781 70.8812 112.781 70.2969V62.9531ZM101.766 57.8125C102.35 57.8125 102.91 58.0446 103.323 58.4578C103.737 58.8709 103.969 59.4313 103.969 60.0156V70.2969C103.969 70.8812 103.737 71.4416 103.323 71.8547C102.91 72.2679 102.35 72.5 101.766 72.5C101.181 72.5 100.621 72.2679 100.208 71.8547C99.7946 71.4416 99.5625 70.8812 99.5625 70.2969V60.0156C99.5625 59.4313 99.7946 58.8709 100.208 58.4578C100.621 58.0446 101.181 57.8125 101.766 57.8125ZM95.1562 65.8906C95.1562 65.3063 94.9241 64.7459 94.511 64.3328C94.0978 63.9196 93.5374 63.6875 92.9531 63.6875C92.3688 63.6875 91.8084 63.9196 91.3953 64.3328C90.9821 64.7459 90.75 65.3063 90.75 65.8906V70.2969C90.75 70.8812 90.9821 71.4416 91.3953 71.8547C91.8084 72.2679 92.3688 72.5 92.9531 72.5C93.5374 72.5 94.0978 72.2679 94.511 71.8547C94.9241 71.4416 95.1562 70.8812 95.1562 70.2969V65.8906Z" fill="white"/>
</g>
<defs>
<filter id="filter0_d_873_194" x="0" y="0" width="205" height="205" filterUnits="userSpaceOnUse" color-interpolation-filters="sRGB">
<feFlood flood-opacity="0" result="BackgroundImageFix"/>
<feColorMatrix in="SourceAlpha" type="matrix" values="0 0 0 0 0 0 0 0 0 0 0 0 0 0 0 0 0 0 127 0" result="hardAlpha"/>
<feOffset dy="32"/>
<feGaussianBlur stdDeviation="27"/>
<feComposite in2="hardAlpha" operator="out"/>
<feColorMatrix type="matrix" values="0 0 0 0 0.145098 0 0 0 0 0.541176 0 0 0 0 1 0 0 0 0.22 0"/>
<feBlend mode="normal" in2="BackgroundImageFix" result="effect1_dropShadow_873_194"/>
<feBlend mode="normal" in="SourceGraphic" in2="effect1_dropShadow_873_194" result="shape"/>
</filter>
</defs>
</svg>
