<svg xmlns="http://www.w3.org/2000/svg" width="54" height="51" viewBox="0 0 54 51" fill="none">
  <path d="M11.25 44.625C10.0125 44.625 8.9535 44.2092 8.073 43.3776C7.1925 42.546 6.7515 41.5452 6.75 40.375V10.625C6.75 9.45625 7.191 8.45608 8.073 7.6245C8.955 6.79292 10.014 6.37642 11.25 6.375H20.7C21.1875 5.1 22.0035 4.07292 23.148 3.29375C24.2925 2.51458 25.5765 2.125 27 2.125C28.4235 2.125 29.7083 2.51458 30.8542 3.29375C32.0002 4.07292 32.8155 5.1 33.3 6.375H42.75C43.9875 6.375 45.0472 6.7915 45.9292 7.6245C46.8112 8.4575 47.2515 9.45767 47.25 10.625V40.375C47.25 41.5438 46.8097 42.5446 45.9292 43.3776C45.0488 44.2106 43.989 44.6264 42.75 44.625H11.25ZM18 36.125H29.25C29.8875 36.125 30.4223 35.921 30.8542 35.513C31.2863 35.105 31.5015 34.6007 31.5 34C31.4985 33.3993 31.2825 32.895 30.852 32.487C30.4215 32.079 29.8875 31.875 29.25 31.875H18C17.3625 31.875 16.8285 32.079 16.398 32.487C15.9675 32.895 15.7515 33.3993 15.75 34C15.7485 34.6007 15.9645 35.1057 16.398 35.5151C16.8315 35.9245 17.3655 36.1278 18 36.125ZM18 27.625H36C36.6375 27.625 37.1722 27.421 37.6042 27.013C38.0362 26.605 38.2515 26.1007 38.25 25.5C38.2485 24.8993 38.0325 24.395 37.602 23.987C37.1715 23.579 36.6375 23.375 36 23.375H18C17.3625 23.375 16.8285 23.579 16.398 23.987C15.9675 24.395 15.7515 24.8993 15.75 25.5C15.7485 26.1007 15.9645 26.6057 16.398 27.0151C16.8315 27.4245 17.3655 27.6278 18 27.625ZM18 19.125H36C36.6375 19.125 37.1722 18.921 37.6042 18.513C38.0362 18.105 38.2515 17.6007 38.25 17C38.2485 16.3993 38.0325 15.895 37.602 15.487C37.1715 15.079 36.6375 14.875 36 14.875H18C17.3625 14.875 16.8285 15.079 16.398 15.487C15.9675 15.895 15.7515 16.3993 15.75 17C15.7485 17.6007 15.9645 18.1057 16.398 18.5151C16.8315 18.9245 17.3655 19.1278 18 19.125ZM27 9.03125C27.4875 9.03125 27.891 8.88038 28.2105 8.57863C28.53 8.27688 28.689 7.8965 28.6875 7.4375C28.686 6.9785 28.5262 6.59812 28.2083 6.29638C27.8902 5.99463 27.4875 5.84375 27 5.84375C26.5125 5.84375 26.1098 5.99463 25.7917 6.29638C25.4738 6.59812 25.314 6.9785 25.3125 7.4375C25.311 7.8965 25.4708 8.27758 25.7917 8.58075C26.1128 8.88392 26.5155 9.03408 27 9.03125Z" fill="#699BF7"/>
</svg>