<svg xmlns="http://www.w3.org/2000/svg" width="51" height="51" viewBox="0 0 51 51" fill="none">
  <g clip-path="url(#clip0_1033_1170)">
    <path d="M28.9008 51C23.253 51 18.3321 49.128 14.138 45.3841C9.94389 41.6402 7.53908 36.964 6.92356 31.3556H11.9574C12.5304 35.6118 14.4236 39.1315 17.6371 41.9144C20.8507 44.6974 24.6052 46.0889 28.9008 46.0889C33.6891 46.0889 37.7514 44.4216 41.0877 41.0869C44.424 37.7523 46.0913 33.69 46.0897 28.9C46.088 24.11 44.4207 20.0485 41.0877 16.7155C37.7547 13.3825 33.6924 11.7144 28.9008 11.7111C26.0769 11.7111 23.4372 12.3659 20.9816 13.6756C18.5261 14.9852 16.4593 16.7859 14.7813 19.0778H21.5341V23.9889H6.80078V9.25556H11.7119V15.0261C13.7991 12.4069 16.3472 10.381 19.356 8.94861C22.3649 7.51621 25.5465 6.8 28.9008 6.8C31.9702 6.8 34.8457 7.38361 37.5271 8.55081C40.2086 9.71802 42.5414 11.2929 44.5255 13.2753C46.5096 15.2578 48.0852 17.5905 49.2524 20.2736C50.4196 22.9567 51.0024 25.8322 51.0008 28.9C50.9991 31.9678 50.4164 34.8433 49.2524 37.5264C48.0885 40.2095 46.5128 42.5422 44.5255 44.5247C42.5381 46.5071 40.2053 48.0828 37.5271 49.2516C34.849 50.4205 31.9735 51.0033 28.9008 51ZM35.7763 39.2133L26.4452 29.8822V16.6222H31.3563V27.9178L39.2141 35.7755L35.7763 39.2133Z" fill="#699BF7"/>
  </g>
  <defs>
    <clipPath id="clip0_1033_1170">
      <rect width="51" height="51" fill="white"/>
    </clipPath>
  </defs>
</svg>