<svg xmlns="http://www.w3.org/2000/svg" width="44" height="43" viewBox="0 0 44 43" fill="none">
  <path d="M21.4555 21.4516C25.1212 21.4516 27.7813 19.6448 29.1483 16.2265C30.1973 13.6029 30.3388 10.5082 30.3388 7.82686C30.3388 2.92593 27.0179 0 21.4555 0C15.8931 0 12.5723 2.92585 12.5723 7.82686C12.5723 10.5082 12.7138 13.6029 13.7628 16.2265C15.1297 19.6448 17.7898 21.4516 21.4555 21.4516Z" fill="#699BF7"/>
  <path d="M24.748 23.7672H18.1034C11.7407 23.7672 6.56445 28.9436 6.56445 35.3062V36.0948C6.56445 39.9023 9.66206 43 13.4697 43H29.3818C33.1894 43 36.287 39.9023 36.287 36.0948V35.3062C36.287 28.9435 31.1107 23.7672 24.748 23.7672Z" fill="#699BF7"/>
  <path d="M33.0237 7.82696C33.0237 12.2979 32.5782 17.1998 29.6094 20.6185C30.3497 20.909 31.1795 21.0578 32.0922 21.0578C34.8689 21.0578 36.8837 19.6896 37.9188 17.1009C38.6886 15.1758 38.7924 12.9311 38.7924 10.9891C38.7924 7.58243 36.6298 5.27175 32.7126 5.05698C32.9184 5.92742 33.0237 6.85324 33.0237 7.82696Z" fill="#699BF7"/>
  <path d="M10.9678 21.0578C11.8334 21.0578 12.6249 20.9248 13.3359 20.6633C10.3287 17.2401 9.88299 12.2931 9.88299 7.82696C9.88299 6.85694 9.98752 5.9344 10.1919 5.06673C6.58002 5.31847 4.26758 7.43472 4.26758 10.989C4.26758 12.9309 4.37135 15.1757 5.14113 17.1009C6.17636 19.6896 8.19109 21.0578 10.9678 21.0578Z" fill="#699BF7"/>
  <path d="M3.87696 35.3061C3.87696 30.1234 6.66274 25.5796 10.8153 23.0922H8.58681C3.85209 23.0922 0 26.9443 0 31.6791V32.2393C0 34.6983 1.68501 36.7709 3.96099 37.3637C3.86116 36.6119 3.87696 36.1526 3.87696 35.3061Z" fill="#699BF7"/>
  <path d="M34.4363 23.0922H32.041C36.193 25.5798 38.9781 30.1239 38.9781 35.3061C38.9781 36.1447 38.9951 36.6259 38.8883 37.4047C41.2516 36.8741 43.0231 34.7604 43.0231 32.2393V31.6791C43.0231 26.9443 39.171 23.0922 34.4363 23.0922Z" fill="#699BF7"/>
</svg>