<svg xmlns="http://www.w3.org/2000/svg" width="54" height="45" viewBox="0 0 54 45" fill="none">
  <g clip-path="url(#clip0_1061_3230)">
    <path d="M20.5105 4.54485e-07C20.209 0.0373554 19.9211 0.129535 19.6672 0.27C19.6672 0.27 17.0399 1.64769 14.2153 3.13788C11.3907 4.62635 8.2483 6.26712 7.52968 6.59942L7.39884 6.65135C4.79022 7.99269 4.24815 10.1838 4.15469 11.4127C4.14845 11.4698 4.15469 11.5165 4.15469 11.5771C4.13184 12.0375 4.15469 12.3335 4.15469 12.3335V34.9425C4.15469 38.2275 8.75092 39.8077 13.1125 39.8077C14.5663 39.8077 16.0201 39.6121 17.2663 39.266C18.0971 38.9198 18.6931 38.2275 18.6931 37.5352V19.3621C18.6931 15.3813 19.7316 13.5121 22.847 11.9544C23.6778 11.6083 32.3884 6.59769 32.3884 6.59769C32.8038 6.25154 33.2316 5.54885 33.2316 5.02962V4.86692C33.2316 4.17462 32.8162 3.645 32.1931 3.29885C31.5701 2.95269 30.7393 2.95269 30.1162 3.29885C29.9085 3.47192 17.2393 10.5802 14.5393 11.7917C11.8393 13.1763 9.31999 13.5104 8.69691 12.8181C8.50376 12.6571 8.33553 12.1638 8.30853 11.6827V11.5737C8.31061 11.1029 8.45599 10.2167 9.60661 9.62654C10.7738 9.08481 13.6711 7.54269 16.4875 6.05769C17.6775 5.42942 17.825 5.36192 18.7575 4.86692C18.8803 5.28974 19.1896 5.65853 19.6239 5.89988C20.0582 6.14123 20.5857 6.23744 21.1013 6.16936C21.6168 6.10127 22.0828 5.8739 22.4063 5.53248C22.7297 5.19106 22.8871 4.76065 22.847 4.32692V1.73077C22.8493 1.48407 22.7883 1.23982 22.6681 1.01437C22.5479 0.788921 22.3712 0.587496 22.15 0.423595C21.9287 0.259694 21.6679 0.137107 21.3852 0.0640497C21.1024 -0.00900728 20.8042 -0.030845 20.5105 4.54485e-07ZM37.1258 6.05769C36.7956 6.10347 36.4835 6.2151 36.2161 6.38308C36.2161 6.38308 25.7609 12.2452 23.9498 13.2508L23.8855 13.3062C22.3818 14.246 21.4908 15.364 21.0941 16.3869C20.8731 16.9642 20.7637 17.5671 20.7701 18.1731V18.7148C20.7671 18.7684 20.7671 18.8221 20.7701 18.8758V39.8077C20.7701 43.0962 25.3144 45 29.4682 45C31.3375 45 33.0239 44.6642 34.2701 43.9719C36.7624 42.7604 48.8085 34.9408 48.8085 34.9408C49.4316 34.5946 49.847 34.1065 49.847 33.5873V11.0873C49.847 10.2219 49.4441 9.70269 48.6133 9.35654C47.9902 9.01039 46.9663 9.17308 46.3432 9.51923C43.0201 11.5962 34.0748 17.46 31.9979 18.4985C29.0902 19.8831 26.3508 20.2292 25.3123 19.3638C24.8969 19.0177 24.9239 18.6923 24.9239 18.1731C24.935 17.8731 24.9786 17.6204 25.0548 17.415C25.1711 17.1138 25.4078 16.7435 26.2864 16.1723C26.3279 16.1446 26.3071 16.1463 26.3508 16.1187C27.8524 15.2827 32.4445 12.6744 35.4394 10.9783C35.609 11.3576 35.9329 11.6754 36.3547 11.8763C36.7764 12.0772 37.2693 12.1486 37.7476 12.078C38.226 12.0074 38.6595 11.7993 38.9728 11.4899C39.2861 11.1806 39.4593 10.7894 39.4624 10.3846V7.78846C39.4647 7.54177 39.4037 7.29751 39.2835 7.07206C39.1633 6.84661 38.9866 6.64519 38.7653 6.48129C38.5441 6.31739 38.2833 6.1948 38.0006 6.12174C37.7178 6.04868 37.4196 6.02685 37.1258 6.05769ZM45.6931 18.7148V22.1763L35.3085 28.8813V25.4198L45.6931 18.7148Z" fill="#699BF7"/>
  </g>
  <defs>
    <clipPath id="clip0_1061_3230">
      <rect width="54" height="45" fill="white"/>
    </clipPath>
  </defs>
</svg>