<svg xmlns="http://www.w3.org/2000/svg" width="50" height="50" viewBox="0 0 50 50" fill="none">
  <path d="M43.7493 20.8327H39.5827V8.33268H41.666V4.16602H8.33268V8.33268H10.416V20.8327H6.24935C5.69681 20.8327 5.16691 21.0522 4.77621 21.4429C4.38551 21.8336 4.16602 22.3635 4.16602 22.916V41.666H45.8327V22.916C45.8327 22.3635 45.6132 21.8336 45.2225 21.4429C44.8318 21.0522 44.3019 20.8327 43.7493 20.8327ZM29.166 37.4993V29.166H20.8327V37.4993H14.5827V8.33268H35.416V37.4993H29.166Z" fill="#699BF7"/>
  <path d="M18.75 12.5H22.9167V16.6667H18.75V12.5ZM27.0833 12.5H31.25V16.6667H27.0833V12.5ZM18.75 20.8333H22.9167V25H18.75V20.8333ZM27.0833 20.8333H31.25V25H27.0833V20.8333Z" fill="#699BF7"/>
</svg>