<svg xmlns="http://www.w3.org/2000/svg" width="51" height="51" viewBox="0 0 51 51" fill="none">
  <path d="M25.5 18.2143C23.6988 18.2143 21.938 17.6802 20.4403 16.6795C18.9427 15.6788 17.7754 14.2564 17.0861 12.5923C16.3968 10.9282 16.2164 9.09704 16.5678 7.33043C16.9192 5.56382 17.7866 3.94108 19.0603 2.66742C20.3339 1.39377 21.9567 0.526396 23.7233 0.174995C25.4899 -0.176406 27.321 0.00394593 28.9852 0.693244C30.6493 1.38254 32.0716 2.54983 33.0723 4.04749C34.073 5.54515 34.6071 7.30592 34.6071 9.10715C34.6071 10.3031 34.3716 11.4874 33.9139 12.5923C33.4562 13.6972 32.7854 14.7012 31.9397 15.5469C31.094 16.3925 30.0901 17.0634 28.9852 17.521C27.8802 17.9787 26.696 18.2143 25.5 18.2143ZM25.5 37.6671C26.6793 35.2165 28.3925 33.0611 30.5137 31.3591C32.6349 29.6571 35.1103 28.4517 37.7582 27.8314H37.8493C37.1455 25.0909 35.5501 22.6623 33.3143 20.9281C31.0786 19.194 28.3295 18.2528 25.5 18.2528C22.6705 18.2528 19.9214 19.194 17.6857 20.9281C15.4499 22.6623 13.8545 25.0909 13.1507 27.8314C15.8152 28.4394 18.3086 29.6391 20.4464 31.3418C22.5841 33.0444 24.3113 35.2063 25.5 37.6671ZM44.7525 36.4286C43.2596 36.4282 41.7685 36.5316 40.29 36.7382C32.5125 37.7946 26.5564 41.5286 25.7186 46.1368C25.6053 46.5353 25.5321 46.9441 25.5 47.3571C25.5027 46.9228 25.46 46.4894 25.3725 46.0639C24.4436 41.4557 18.4875 37.7218 10.8011 36.6654C9.29072 36.4789 7.76905 36.3997 6.2475 36.4286H0V51H51V36.4286H44.7525ZM27.4671 37.8311C26.8499 38.9843 26.373 40.2073 26.0464 41.4739C28.7968 38.2318 33.8057 35.8275 40.035 34.9896C41.5968 34.7534 43.1731 34.6256 44.7525 34.6071H47.3571V29.1429H42.0021C40.7138 29.1451 39.4301 29.298 38.1771 29.5982C35.9179 30.1511 33.7988 31.1688 31.9548 32.5863C30.1108 34.0038 28.5824 35.79 27.4671 37.8311ZM10.9286 34.935C17.1579 35.7729 22.1668 38.1771 24.9354 41.4193C24.3002 39.087 23.1669 36.9201 21.6135 35.068C20.0601 33.2159 18.1236 31.7226 15.9375 30.6911C14.9165 30.2154 13.8481 29.8491 12.75 29.5982C11.5208 29.3035 10.2619 29.1508 8.99786 29.1429H3.64286V34.6071H6.2475C7.81357 34.6078 9.3777 34.7173 10.9286 34.935Z" fill="#699BF7"/>
</svg>