<svg xmlns="http://www.w3.org/2000/svg" width="37" height="37" viewBox="0 0 37 37" fill="none">
  <path fill-rule="evenodd" clip-rule="evenodd" d="M7.70898 23.1201C8.01564 23.1201 8.30974 23.2419 8.52658 23.4588C8.74342 23.6756 8.86523 23.9697 8.86523 24.2764V27.7497C8.86523 27.9625 9.0379 28.1352 9.25065 28.1352H27.7507C27.8529 28.1352 27.9509 28.0946 28.0232 28.0223C28.0955 27.95 28.1361 27.852 28.1361 27.7497V24.2764C28.1361 23.9697 28.2579 23.6756 28.4747 23.4588C28.6916 23.2419 28.9857 23.1201 29.2923 23.1201C29.599 23.1201 29.8931 23.2419 30.1099 23.4588C30.3268 23.6756 30.4486 23.9697 30.4486 24.2764V27.7497C30.4486 28.4653 30.1643 29.1515 29.6584 29.6575C29.1524 30.1634 28.4662 30.4477 27.7507 30.4477H9.25065C8.53512 30.4477 7.84889 30.1634 7.34294 29.6575C6.83698 29.1515 6.55273 28.4653 6.55273 27.7497V24.2764C6.55273 23.9697 6.67455 23.6756 6.89139 23.4588C7.10823 23.2419 7.40233 23.1201 7.70898 23.1201Z" fill="#3E70C2"/>
  <path fill-rule="evenodd" clip-rule="evenodd" d="M18.8125 8.60254C19.1192 8.60254 19.4133 8.72436 19.6301 8.9412C19.8469 9.15804 19.9687 9.45213 19.9687 9.75879V22.2247C19.9687 22.5314 19.8469 22.8255 19.6301 23.0423C19.4133 23.2591 19.1192 23.381 18.8125 23.381C18.5058 23.381 18.2117 23.2591 17.9949 23.0423C17.7781 22.8255 17.6562 22.5314 17.6562 22.2247V9.76033C17.6562 9.45367 17.7781 9.15958 17.9949 8.94274C18.2117 8.7259 18.5058 8.60254 18.8125 8.60254Z" fill="#3E70C2"/>
  <path fill-rule="evenodd" clip-rule="evenodd" d="M18.0045 6.88175C18.2205 6.67082 18.5105 6.55273 18.8124 6.55273C19.1143 6.55273 19.4042 6.67082 19.6202 6.88175L24.7755 11.9168C24.9904 12.1321 25.1117 12.4233 25.1134 12.7274C25.115 13.0315 24.9968 13.324 24.7843 13.5415C24.5718 13.7591 24.2822 13.8842 23.9782 13.8897C23.6741 13.8952 23.3801 13.7807 23.1599 13.571L18.8124 9.32529L14.4649 13.571C14.3567 13.6794 14.2282 13.7652 14.0866 13.8235C13.945 13.8817 13.7933 13.9113 13.6402 13.9105C13.4872 13.9097 13.3358 13.8784 13.1948 13.8186C13.0539 13.7589 12.9263 13.6717 12.8193 13.5622C12.7123 13.4526 12.6282 13.323 12.5717 13.1807C12.5153 13.0384 12.4876 12.8863 12.4904 12.7332C12.4932 12.5802 12.5264 12.4292 12.5879 12.2891C12.6495 12.1489 12.7383 12.0224 12.8492 11.9168L18.0045 6.88175Z" fill="#3E70C2"/>
</svg>