<svg xmlns="http://www.w3.org/2000/svg" width="36" height="36" viewBox="0 0 36 36" fill="none">
  <path d="M12.627 26.9998H5.625C5.32663 26.9998 5.04048 26.8812 4.8295 26.6703C4.61853 26.4593 4.5 26.1731 4.5 25.8748V6.74976H2.25C1.95163 6.74976 1.66548 6.63123 1.4545 6.42025C1.24353 6.20927 1.125 5.92312 1.125 5.62476C1.125 5.32639 1.24353 5.04024 1.4545 4.82926C1.66548 4.61828 1.95163 4.49976 2.25 4.49976H33.75C34.0484 4.49976 34.3345 4.61828 34.5455 4.82926C34.7565 5.04024 34.875 5.32639 34.875 5.62476C34.875 5.92312 34.7565 6.20927 34.5455 6.42025C34.3345 6.63123 34.0484 6.74976 33.75 6.74976H31.5V25.8748C31.5 26.1731 31.3815 26.4593 31.1705 26.6703C30.9595 26.8812 30.6734 26.9998 30.375 26.9998H23.3865L27.2835 33.7498H24.687L20.79 26.9998H15.2235L11.3265 33.7498H8.73L12.627 26.9998ZM29.25 6.74976H6.75V24.7498H29.25V6.74976ZM12.0465 18.7963C11.9419 18.9009 11.8177 18.9838 11.6811 19.0404C11.5444 19.097 11.3979 19.1262 11.25 19.1262C11.1021 19.1262 10.9556 19.097 10.8189 19.0404C10.6823 18.9838 10.5581 18.9009 10.4535 18.7963C10.3489 18.6917 10.2659 18.5675 10.2093 18.4308C10.1527 18.2942 10.1236 18.1477 10.1236 17.9998C10.1236 17.8518 10.1527 17.7054 10.2093 17.5687C10.2659 17.432 10.3489 17.3079 10.4535 17.2033L15.6442 12.0148L20.0543 15.3223L23.8725 10.5478C23.9619 10.4246 24.0753 10.3208 24.206 10.2427C24.3366 10.1646 24.4817 10.1138 24.6326 10.0934C24.7834 10.0731 24.9368 10.0835 25.0835 10.1242C25.2302 10.1648 25.3671 10.2348 25.4859 10.3299C25.6048 10.4249 25.7031 10.5431 25.7749 10.6773C25.8468 10.8115 25.8906 10.9589 25.9039 11.1105C25.9171 11.2621 25.8994 11.4149 25.8519 11.5595C25.8044 11.7041 25.7281 11.8375 25.6275 11.9518L20.448 18.4295L15.8558 14.9848L12.0465 18.794V18.7963Z" fill="#004EFF"/>
</svg>