<svg xmlns="http://www.w3.org/2000/svg" width="36" height="36" viewBox="0 0 36 36" fill="none">
  <g clip-path="url(#clip0_807_5804)">
    <path d="M17.9 17.3C20.6 17.3 22.7 15.1 22.7 12.4C22.7 9.7 20.5 7.6 17.8 7.6C15.1 7.6 13 9.8 13 12.4C13 15.1 15.2 17.3 17.9 17.3ZM17.8 9.6C17.9 9.6 17.9 9.6 17.8 9.6C19.4 9.6 20.7 10.9 20.7 12.5C20.7 14.1 19.4 15.3 17.8 15.3C16.2 15.3 15 14 15 12.5C15 10.9 16.3 9.6 17.8 9.6Z" fill="#004EFF"/>
    <path d="M32.7 16.7C30.8 15 28.3 14.1 25.7 14.2H24.9C24.7 15 24.4 15.7 24 16.3C24.6 16.2 25.1 16.2 25.7 16.2C27.6 16.1 29.5 16.7 31 17.8V25H33V17L32.7 16.7Z" fill="#004EFF"/>
    <path d="M23.4 7.8C23.9 6.6 25.3 6 26.6 6.5C27.8 7 28.4 8.4 27.9 9.7C27.5 10.6 26.6 11.2 25.7 11.2C25.5 11.2 25.2 11.2 25 11.1C25.1 11.6 25.1 12.1 25.1 12.5V13.1C25.3 13.1 25.5 13.2 25.7 13.2C28.2 13.2 30.2 11.2 30.2 8.8C30.2 6.3 28.2 4.3 25.8 4.3C24.2 4.3 22.8 5.1 22 6.5C22.5 6.8 23 7.2 23.4 7.8Z" fill="#004EFF"/>
    <path d="M12 16.4C11.6 15.8 11.3 15.1 11.1 14.3H10.3C7.7 14.2 5.2 15.1 3.3 16.7L3 17V25H5V17.8C6.6 16.7 8.4 16.1 10.3 16.2C10.9 16.2 11.5 16.3 12 16.4Z" fill="#004EFF"/>
    <path d="M10.3 13.1C10.5 13.1 10.7 13.1 10.9 13V12.4C10.9 11.9 10.9 11.4 11 11C10.8 11.1 10.5 11.1 10.3 11.1C9.00001 11.1 7.90001 10 7.90001 8.7C7.90001 7.4 9.00001 6.3 10.3 6.3C11.3 6.3 12.2 6.9 12.6 7.8C13 7.3 13.6 6.8 14.1 6.4C12.8 4.3 10.1 3.6 8.00001 4.9C5.90001 6.2 5.20001 8.9 6.50001 11C7.30001 12.3 8.70001 13.1 10.3 13.1Z" fill="#004EFF"/>
    <path d="M26.1 22.7L25.9 22.4C23.9 20.2 21.1 18.9 18.1 19C15.1 18.9 12.2 20.2 10.2 22.4L10 22.7V30.3C10 31.2 10.7 32 11.7 32H24.5C25.4 32 26.2 31.2 26.2 30.3V22.7H26.1ZM24.1 30H12V23.4C13.6 21.8 15.8 21 18.1 21C20.3 20.9 22.5 21.8 24.1 23.4V30Z" fill="#004EFF"/>
  </g>
  <defs>
    <clipPath id="clip0_807_5804">
      <rect width="36" height="36" fill="white"/>
    </clipPath>
  </defs>
</svg>