<svg xmlns="http://www.w3.org/2000/svg" width="36" height="36" viewBox="0 0 36 36" fill="none">
  <path d="M18 4.5C10.5559 4.5 4.5 10.5559 4.5 18C4.5 25.4441 10.5559 31.5 18 31.5C25.4441 31.5 31.5 25.4441 31.5 18C31.5 10.5559 25.4441 4.5 18 4.5ZM18 6.75C24.2269 6.75 29.25 11.7731 29.25 18C29.25 24.2269 24.2269 29.25 18 29.25C11.7731 29.25 6.75 24.2269 6.75 18C6.75 11.7731 11.7731 6.75 18 6.75ZM12.9375 13.5C12.4899 13.5 12.0607 13.6778 11.7443 13.9943C11.4278 14.3107 11.25 14.7399 11.25 15.1875C11.25 15.6351 11.4278 16.0643 11.7443 16.3807C12.0607 16.6972 12.4899 16.875 12.9375 16.875C13.3851 16.875 13.8143 16.6972 14.1307 16.3807C14.4472 16.0643 14.625 15.6351 14.625 15.1875C14.625 14.7399 14.4472 14.3107 14.1307 13.9943C13.8143 13.6778 13.3851 13.5 12.9375 13.5ZM23.0625 13.5C22.6149 13.5 22.1857 13.6778 21.8693 13.9943C21.5528 14.3107 21.375 14.7399 21.375 15.1875C21.375 15.6351 21.5528 16.0643 21.8693 16.3807C22.1857 16.6972 22.6149 16.875 23.0625 16.875C23.5101 16.875 23.9393 16.6972 24.2557 16.3807C24.5722 16.0643 24.75 15.6351 24.75 15.1875C24.75 14.7399 24.5722 14.3107 24.2557 13.9943C23.9393 13.6778 23.5101 13.5 23.0625 13.5ZM12.1635 21.375L10.2308 22.5C11.7866 25.1854 14.6779 27 18 27C21.3221 27 24.2134 25.1854 25.7693 22.5L23.8365 21.375C23.2466 22.4013 22.3963 23.2538 21.3715 23.8464C20.3468 24.439 19.1838 24.7507 18 24.75C16.8162 24.7507 15.6532 24.439 14.6285 23.8464C13.6037 23.2538 12.7534 22.4013 12.1635 21.375Z" fill="#004EFF"/>
</svg>