<svg xmlns="http://www.w3.org/2000/svg" width="36" height="36" viewBox="0 0 36 36" fill="none">
  <g clip-path="url(#clip0_807_6042)">
    <path d="M18 10.6965C17.0409 10.6965 16.0912 10.8854 15.2051 11.2524C14.319 11.6195 13.5139 12.1575 12.8357 12.8356C12.1575 13.5138 11.6195 14.319 11.2525 15.2051C10.8854 16.0912 10.6965 17.0409 10.6965 18C10.6965 18.9591 10.8854 19.9088 11.2525 20.7949C11.6195 21.681 12.1575 22.4862 12.8357 23.1644C13.5139 23.8425 14.319 24.3805 15.2051 24.7476C16.0912 25.1146 17.0409 25.3035 18 25.3035C19.937 25.3035 21.7947 24.534 23.1644 23.1644C24.5341 21.7947 25.3035 19.937 25.3035 18C25.3035 16.063 24.5341 14.2053 23.1644 12.8356C21.7947 11.466 19.937 10.6965 18 10.6965ZM12.9465 18C12.9465 16.6597 13.479 15.3744 14.4267 14.4266C15.3744 13.4789 16.6598 12.9465 18 12.9465C19.3403 12.9465 20.6257 13.4789 21.5734 14.4266C22.5211 15.3744 23.0535 16.6597 23.0535 18C23.0535 19.3403 22.5211 20.6256 21.5734 21.5734C20.6257 22.5211 19.3403 23.0535 18 23.0535C16.6598 23.0535 15.3744 22.5211 14.4267 21.5734C13.479 20.6256 12.9465 19.3403 12.9465 18Z" fill="#004EFF"/>
    <path d="M22.041 3.02175C20.8552 -1.00575 15.1447 -1.00575 13.959 3.02175L13.7475 3.7395C13.6647 4.02064 13.52 4.27969 13.3241 4.49766C13.1281 4.71562 12.8859 4.88698 12.6151 4.99917C12.3444 5.11136 12.0519 5.16153 11.7593 5.14602C11.4666 5.1305 11.1811 5.04969 10.9237 4.9095L10.2667 4.5495C6.57672 2.5425 2.54247 6.579 4.55172 10.2668L4.90947 10.9237C5.04966 11.1811 5.13047 11.4666 5.14599 11.7593C5.1615 12.052 5.11133 12.3444 4.99914 12.6152C4.88695 12.8859 4.7156 13.1282 4.49763 13.3241C4.27966 13.52 4.02062 13.6647 3.73947 13.7475L3.02172 13.959C-1.00578 15.1447 -1.00578 20.8552 3.02172 22.041L3.73947 22.2525C4.02062 22.3353 4.27966 22.48 4.49763 22.6759C4.7156 22.8718 4.88695 23.1141 4.99914 23.3848C5.11133 23.6556 5.1615 23.948 5.14599 24.2407C5.13047 24.5334 5.04966 24.8189 4.90947 25.0763L4.54947 25.7333C2.54247 29.4233 6.57672 33.4598 10.2667 31.4483L10.9237 31.0905C11.1811 30.9503 11.4666 30.8695 11.7593 30.854C12.0519 30.8385 12.3444 30.8886 12.6151 31.0008C12.8859 31.113 13.1281 31.2844 13.3241 31.5023C13.52 31.7203 13.6647 31.9794 13.7475 32.2605L13.959 32.9782C15.1447 37.0057 20.8552 37.0057 22.041 32.9782L22.2525 32.2605C22.3353 31.9794 22.48 31.7203 22.6759 31.5023C22.8718 31.2844 23.114 31.113 23.3848 31.0008C23.6556 30.8886 23.948 30.8385 24.2407 30.854C24.5333 30.8695 24.8188 30.9503 25.0762 31.0905L25.7332 31.4505C29.4232 33.4598 33.4597 29.421 31.4482 25.7333L31.0905 25.0763C30.9503 24.8189 30.8695 24.5334 30.854 24.2407C30.8384 23.948 30.8886 23.6556 31.0008 23.3848C31.113 23.1141 31.2844 22.8718 31.5023 22.6759C31.7203 22.48 31.9793 22.3353 32.2605 22.2525L32.9782 22.041C37.0057 20.8552 37.0057 15.1447 32.9782 13.959L32.2605 13.7475C31.9793 13.6647 31.7203 13.52 31.5023 13.3241C31.2844 13.1282 31.113 12.8859 31.0008 12.6152C30.8886 12.3444 30.8384 12.052 30.854 11.7593C30.8695 11.4666 30.9503 11.1811 31.0905 10.9237L31.4505 10.2668C33.4597 6.57675 29.421 2.5425 25.7332 4.55175L25.0762 4.9095C24.8188 5.04969 24.5333 5.1305 24.2407 5.14602C23.948 5.16153 23.6556 5.11136 23.3848 4.99917C23.114 4.88698 22.8718 4.71562 22.6759 4.49766C22.48 4.27969 22.3353 4.02064 22.2525 3.7395L22.041 3.02175ZM16.1167 3.6585C16.6702 1.77975 19.3297 1.77975 19.8832 3.6585L20.0947 4.37625C20.2725 4.97944 20.5831 5.5352 21.0036 6.00277C21.4241 6.47035 21.9439 6.83789 22.5249 7.07845C23.1059 7.31902 23.7334 7.4265 24.3614 7.39303C24.9893 7.35955 25.6018 7.18597 26.154 6.885L26.8087 6.525C28.5277 5.59125 30.4087 7.47 29.4727 9.19125L29.115 9.84825C28.8145 10.4005 28.6413 11.0129 28.6082 11.6407C28.5751 12.2685 28.6828 12.8958 28.9236 13.4766C29.1644 14.0573 29.532 14.5769 29.9996 14.9971C30.4672 15.4173 31.0229 15.7276 31.626 15.9052L32.3415 16.1168C34.2202 16.6702 34.2202 19.3298 32.3415 19.8833L31.6237 20.0947C31.0205 20.2725 30.4648 20.5831 29.9972 21.0036C29.5296 21.4241 29.1621 21.9439 28.9215 22.5249C28.681 23.1059 28.5735 23.7334 28.6069 24.3614C28.6404 24.9893 28.814 25.6019 29.115 26.154L29.475 26.8088C30.4087 28.5278 28.53 30.4088 26.8087 29.4728L26.154 29.115C25.6017 28.8141 24.989 28.6406 24.3609 28.6072C23.7329 28.5739 23.1053 28.6816 22.5242 28.9224C21.9432 29.1632 21.4234 29.531 21.003 29.9988C20.5826 30.4666 20.2723 31.0226 20.0947 31.626L19.8832 32.3415C19.3297 34.2202 16.6702 34.2202 16.1167 32.3415L15.9052 31.6238C15.7273 31.0209 15.4169 30.4654 14.9965 29.9981C14.5762 29.5307 14.0566 29.1633 13.4759 28.9228C12.8951 28.6823 12.268 28.5747 11.6403 28.608C11.0126 28.6412 10.4003 28.8145 9.84822 29.115L9.19122 29.475C7.47222 30.4088 5.59122 28.53 6.52722 26.8088L6.88497 26.154C7.18636 25.6018 7.36029 24.9891 7.39398 24.3608C7.42768 23.7326 7.32029 23.1048 7.0797 22.5235C6.8391 21.9422 6.47141 21.4221 6.0036 21.0015C5.53579 20.5808 4.97973 20.2702 4.37622 20.0925L3.65847 19.881C1.77972 19.3275 1.77972 16.668 3.65847 16.1145L4.37622 15.903C4.97879 15.725 5.53394 15.4146 6.00104 14.9944C6.46815 14.5742 6.83539 14.0549 7.07589 13.4745C7.3164 12.894 7.42407 12.2672 7.39104 11.6397C7.358 11.0123 7.1851 10.4002 6.88497 9.84825L6.52497 9.19125C5.59122 7.47225 7.46997 5.59125 9.19122 6.52725L9.84822 6.885C10.4003 7.18554 11.0126 7.35879 11.6403 7.39204C12.268 7.4253 12.8951 7.31772 13.4759 7.07719C14.0566 6.83666 14.5762 6.46926 14.9965 6.00192C15.4169 5.53458 15.7273 4.97913 15.9052 4.37625L16.1167 3.6585Z" fill="#004EFF"/>
  </g>
  <defs>
    <clipPath id="clip0_807_6042">
      <rect width="36" height="36" fill="white"/>
    </clipPath>
  </defs>
</svg>