<svg xmlns="http://www.w3.org/2000/svg" width="36" height="36" viewBox="0 0 36 36" fill="none">
  <path d="M30.5173 17.181C30.5725 17.6106 30.6001 18.0684 30.6001 18.5544C30.6001 21.3174 29.7631 23.175 28.9621 24.3288C28.6457 24.7868 28.2772 25.2067 27.8641 25.5798C27.7283 25.6997 27.5865 25.8126 27.4393 25.9182L27.4231 25.929C27.2937 26.0099 27.1869 26.1224 27.1129 26.2559C27.0389 26.3894 27.0001 26.5396 27.0001 26.6922V29.7C27.0001 29.9387 26.9053 30.1676 26.7365 30.3364C26.5677 30.5052 26.3388 30.6 26.1001 30.6H23.6089C23.5535 30.6 23.5004 30.578 23.4613 30.5388C23.4221 30.4997 23.4001 30.4466 23.4001 30.3912C23.4001 29.2806 22.5001 28.3806 21.3913 28.3806H18.2089C17.1001 28.3806 16.2001 29.2806 16.2001 30.3912C16.2001 30.4466 16.1781 30.4997 16.1389 30.5388C16.0998 30.578 16.0467 30.6 15.9913 30.6H13.5001C13.2614 30.6 13.0325 30.5052 12.8637 30.3364C12.6949 30.1676 12.6001 29.9387 12.6001 29.7V28.17C12.5996 27.9815 12.5399 27.7979 12.4294 27.6452C12.319 27.4924 12.1633 27.3782 11.9845 27.3186L11.9125 27.2844C11.7694 27.2144 11.6311 27.1351 11.4985 27.0468C11.1025 26.7912 10.4779 26.316 9.6409 25.4682C8.88636 24.6907 8.27841 23.7833 7.8463 22.7898C7.5151 22.0302 6.8221 21.3624 5.8951 21.2058C5.75711 21.1825 5.63178 21.1112 5.54122 21.0045C5.45067 20.8978 5.40069 20.7625 5.4001 20.6226V17.91C5.4001 17.7865 5.44386 17.6671 5.52361 17.5728C5.60336 17.4786 5.71394 17.4156 5.8357 17.3952C6.8257 17.2278 7.5277 16.47 7.8013 15.6348C8.0353 14.9184 8.4565 13.9788 9.1549 13.2714C9.74341 12.6836 10.4024 12.1709 11.1169 11.745C11.4034 11.5737 11.6977 11.4157 11.9989 11.2716L12.0457 11.25L12.0547 11.2464C12.217 11.1768 12.3552 11.0611 12.4522 10.9135C12.5492 10.766 12.6006 10.5932 12.6001 10.4166V6.642C13.0555 7.038 13.5865 7.4664 14.1589 7.848C14.9401 8.3736 15.8707 8.8668 16.8265 9.045C17.0473 8.4438 17.3353 7.875 17.6905 7.3386L17.3611 7.3044C16.7221 7.2396 15.9535 6.885 15.1597 6.354C14.4452 5.86229 13.7738 5.3107 13.1527 4.7052C12.9585 4.51965 12.7147 4.39451 12.4507 4.34497C12.1868 4.29544 11.9141 4.32366 11.6659 4.4262C11.4114 4.52664 11.1929 4.70106 11.0386 4.92695C10.8842 5.15284 10.8012 5.41982 10.8001 5.6934V9.8586C9.72459 10.4272 8.73846 11.1507 7.8733 12.006C6.8959 12.996 6.3649 14.238 6.0913 15.075C5.9833 15.3954 5.7493 15.5844 5.5369 15.6204C4.9958 15.7114 4.50442 15.9911 4.14988 16.4099C3.79535 16.8287 3.60058 17.3595 3.6001 17.9082V20.6208C3.59982 21.1867 3.79998 21.7343 4.16507 22.1666C4.53016 22.5989 5.03659 22.888 5.5945 22.9824C5.8195 23.0184 6.0625 23.202 6.1957 23.5098C6.71642 24.7056 7.44946 25.7973 8.3593 26.7318C9.2755 27.6606 9.9991 28.2204 10.5175 28.557C10.6207 28.623 10.7149 28.6812 10.8001 28.7316V29.7C10.8001 30.0546 10.8699 30.4057 11.0056 30.7332C11.1413 31.0608 11.3402 31.3585 11.5909 31.6092C11.8416 31.8599 12.1393 32.0588 12.4669 32.1945C12.7944 32.3302 13.1455 32.4 13.5001 32.4H15.9913C17.1001 32.4 18.0001 31.5 18.0001 30.3912C18.0001 30.2742 18.0937 30.1806 18.2089 30.1806H21.3913C21.5065 30.1806 21.6001 30.2742 21.6001 30.3912C21.6001 31.5 22.5001 32.4 23.6089 32.4H26.1001C26.8162 32.4 27.5029 32.1155 28.0093 31.6092C28.5156 31.1028 28.8001 30.4161 28.8001 29.7V27.1458C29.4243 26.6261 29.9753 26.0242 30.4381 25.3566C31.4371 23.922 32.4001 21.7098 32.4001 18.5544C32.4001 17.2476 32.2183 16.0776 31.8727 15.0318C31.5362 15.8152 31.0782 16.5405 30.5155 17.181M30.2419 9.4176C30.7822 10.7229 30.8681 12.1718 30.4858 13.5318C30.1035 14.8918 29.2753 16.0838 28.1341 16.9164C27.3601 17.478 26.3395 17.4384 25.4575 17.073L19.9855 14.8068C19.1035 14.4414 18.3529 13.7484 18.2035 12.8052C17.9706 11.2851 18.3017 9.73236 19.1344 8.43952C19.9671 7.14669 21.244 6.20307 22.7243 5.78651C24.2046 5.36995 25.7861 5.50921 27.1709 6.17806C28.5556 6.8469 29.6479 7.99914 30.2419 9.4176ZM27.0739 15.462C27.7206 14.9916 28.2303 14.3574 28.5505 13.6246C28.8706 12.8917 28.9898 12.0869 28.8955 11.2927C28.8013 10.4986 28.4972 9.74393 28.0145 9.10638C27.5317 8.46883 26.8878 7.97144 26.149 7.66541C25.4101 7.35938 24.6031 7.25576 23.8109 7.36523C23.0188 7.47469 22.2701 7.79327 21.6419 8.28819C21.0138 8.7831 20.5289 9.43647 20.2371 10.181C19.9453 10.9256 19.8572 11.7345 19.9819 12.5244C20.005 12.6257 20.0569 12.7182 20.1313 12.7908C20.2465 12.9132 20.4301 13.0428 20.6749 13.1436L26.1469 15.4116C26.3471 15.4976 26.5626 15.5423 26.7805 15.543C26.8847 15.545 26.9854 15.5169 27.0739 15.462ZM12.1501 17.1C12.5081 17.1 12.8515 16.9578 13.1047 16.7046C13.3579 16.4514 13.5001 16.108 13.5001 15.75C13.5001 15.392 13.3579 15.0486 13.1047 14.7954C12.8515 14.5422 12.5081 14.4 12.1501 14.4C11.7921 14.4 11.4487 14.5422 11.1955 14.7954C10.9423 15.0486 10.8001 15.392 10.8001 15.75C10.8001 16.108 10.9423 16.4514 11.1955 16.7046C11.4487 16.9578 11.7921 17.1 12.1501 17.1Z" fill="#004EFF"/>
</svg>