<svg xmlns="http://www.w3.org/2000/svg" width="36" height="36" viewBox="0 0 36 36" fill="none">
  <g clip-path="url(#clip0_807_5819)">
    <path d="M18 2C14.8355 2 11.7421 2.93838 9.11088 4.69649C6.4797 6.45459 4.42894 8.95345 3.21793 11.8771C2.00693 14.8007 1.69008 18.0177 2.30744 21.1214C2.92481 24.2251 4.44866 27.0761 6.6863 29.3137C8.92394 31.5513 11.7749 33.0752 14.8786 33.6926C17.9823 34.3099 21.1993 33.9931 24.1229 32.7821C27.0466 31.5711 29.5454 29.5203 31.3035 26.8891C33.0616 24.2579 34 21.1645 34 18C34 13.7565 32.3143 9.68687 29.3137 6.68629C26.3131 3.68571 22.2435 2 18 2ZM18 32C15.2311 32 12.5243 31.1789 10.222 29.6406C7.91974 28.1022 6.12532 25.9157 5.06569 23.3576C4.00607 20.7994 3.72882 17.9845 4.26901 15.2687C4.80921 12.553 6.14258 10.0584 8.10051 8.1005C10.0584 6.14257 12.553 4.8092 15.2687 4.26901C17.9845 3.72881 20.7994 4.00606 23.3576 5.06569C25.9157 6.12531 28.1022 7.91973 29.6406 10.222C31.1789 12.5243 32 15.2311 32 18C32 21.713 30.525 25.274 27.8995 27.8995C25.274 30.525 21.713 32 18 32Z" fill="#004EFF"/>
    <path d="M18.92 18.4V10.75C18.92 10.4848 18.8147 10.2304 18.6272 10.0429C18.4396 9.85536 18.1853 9.75 17.92 9.75C17.6548 9.75 17.4005 9.85536 17.2129 10.0429C17.0254 10.2304 16.92 10.4848 16.92 10.75V19.47L22.82 23.47C22.9287 23.5517 23.0529 23.6105 23.1851 23.6426C23.3172 23.6747 23.4545 23.6795 23.5886 23.6567C23.7227 23.6339 23.8507 23.584 23.9648 23.5101C24.079 23.4362 24.1768 23.3397 24.2524 23.2267C24.328 23.1136 24.3798 22.9864 24.4045 22.8526C24.4292 22.7189 24.4264 22.5815 24.3962 22.4489C24.366 22.3163 24.3091 22.1913 24.229 22.0814C24.1488 21.9716 24.0471 21.8792 23.93 21.81L18.92 18.4Z" fill="#004EFF"/>
    <path d="M7.99996 17.94C7.99082 16.141 8.47006 14.3733 9.38659 12.8253C10.3031 11.2773 11.6226 10.0071 13.2043 9.15C14.786 8.29294 16.5707 7.88121 18.368 7.95869C20.1653 8.03618 21.9079 8.59999 23.41 9.58999L24.26 8.22999C22.8332 7.29539 21.2171 6.68839 19.5279 6.45259C17.8387 6.21678 16.1182 6.35804 14.49 6.86619C12.8618 7.37435 11.3664 8.2368 10.1112 9.39159C8.85596 10.5464 7.87207 11.9648 7.23019 13.5451C6.58832 15.1253 6.30439 16.8281 6.39882 18.5311C6.49324 20.2341 6.96367 21.895 7.7763 23.3946C8.58894 24.8942 9.72361 26.1952 11.0988 27.2042C12.474 28.2131 14.0556 28.9049 15.73 29.23L16 27.7C13.7479 27.2403 11.723 26.0189 10.266 24.2413C8.80891 22.4637 8.00869 20.2384 7.99996 17.94Z" fill="#004EFF"/>
  </g>
  <defs>
    <clipPath id="clip0_807_5819">
      <rect width="36" height="36" fill="white"/>
    </clipPath>
  </defs>
</svg>